<?xml version="1.0" encoding="UTF-8"?>
<svg version="1.1" xmlns="http://www.w3.org/2000/svg" width="349" height="385">
<path d="M0 0 C2.40806839 1.24331567 3.99798349 2.9322244 5.8034668 4.93115234 C4.21999822 8.81045263 1.73022967 11.2043814 -1.24731445 14.10693359 C-1.74313522 14.59518112 -2.23895599 15.08342865 -2.74980164 15.58647156 C-4.85988483 17.66407058 -6.98152071 19.72971762 -9.10253906 21.79614258 C-22.34757816 34.38803896 -22.34757816 34.38803896 -27.29418945 51.51318359 C-26.83950274 58.73272133 -24.51649475 64.17227916 -19.8840332 69.68115234 C-11.89638218 76.36848809 -4.46331516 77.78870258 5.8034668 76.93115234 C14.24351204 74.66735012 19.46877076 69.4047662 23.8034668 61.93115234 C26.52826798 55.31377804 26.25679183 48.54026887 24.11987305 41.76318359 C21.51366966 35.96003738 17.15170587 31.49047099 12.8034668 26.93115234 C9.68149202 28.24010954 9.68149202 28.24010954 7.8034668 30.93115234 C8.42995117 31.66720703 9.05643555 32.40326172 9.7019043 33.16162109 C10.51916992 34.13744141 11.33643555 35.11326172 12.1784668 36.11865234 C13.39663086 37.56304687 13.39663086 37.56304687 14.6394043 39.03662109 C19.10948877 45.01556079 19.75611204 50.62753881 18.8034668 57.93115234 C17.02196197 63.29375315 13.92905392 66.212367 9.0534668 68.93115234 C2.32669371 71.87100132 -3.09760769 71.97237609 -9.9465332 69.36865234 C-14.58190204 67.09959068 -16.62246263 64.35533613 -19.1965332 59.93115234 C-21.14910117 54.07344844 -20.912372 48.77775001 -18.3840332 43.11865234 C-14.75864696 36.49614282 -9.44258804 31.27312661 -4.1965332 25.93115234 C-3.45532227 25.16287109 -2.71411133 24.39458984 -1.95043945 23.60302734 C2.1059959 19.45961189 6.3496008 15.64270734 10.8034668 11.93115234 C20.78742068 15.84214158 30.21273443 28.7061047 34.8034668 37.93115234 C38.26374899 46.28301527 37.71121337 56.09027753 34.83862305 64.52099609 C30.23231595 75.2458696 22.35487947 82.51957918 11.65893555 86.98974609 C2.43748463 90.02992348 -7.1681833 89.48912784 -16.0871582 85.70458984 C-26.60136482 80.33257717 -33.02418372 73.38758265 -36.80981445 62.10302734 C-38.70459685 51.46162315 -37.93139223 40.06189142 -31.85571289 30.91186523 C-26.89202833 24.48050016 -21.36077564 18.68981667 -15.63427734 12.94335938 C-13.98913877 11.28611147 -12.36359012 9.61102328 -10.73754883 7.93505859 C-9.68986638 6.87793234 -8.64107876 5.82189997 -7.59106445 4.76708984 C-7.10869827 4.26519135 -6.62633209 3.76329285 -6.12934875 3.2461853 C-2.75204761 -0.08625958 -2.75204761 -0.08625958 0 0 Z M-1.1965332 34.93115234 C-2.68864502 37.13164047 -4.16499542 39.34033512 -5.6340332 41.55615234 C-6.05491211 42.17361328 -6.47579102 42.79107422 -6.90942383 43.42724609 C-9.41315522 47.23291782 -10.95009358 50.26212063 -11.1965332 54.93115234 C-9.94018374 58.49080916 -8.81956022 60.4259953 -5.8840332 62.80615234 C-2.59626075 64.18242918 -0.72972928 64.50800068 2.8034668 63.93115234 C5.72499382 62.09670514 8.2361277 60.06583054 9.8034668 56.93115234 C9.8034668 48.75752001 6.80566854 43.3204275 1.8034668 36.93115234 C0.8134668 36.27115234 -0.1765332 35.61115234 -1.1965332 34.93115234 Z " fill="#0400BF" transform="translate(175.196533203125,99.06884765625)"/>
<path d="M0 0 C6.02335794 4.88561255 9.42003836 10.27702098 10.609375 17.9609375 C11.13440292 25.80943183 9.1353227 32.10859208 4.58203125 38.5078125 C-0.17115405 43.69310555 -6.46244306 46.2312535 -13.3671875 46.76171875 C-22.6636763 46.95754279 -29.1362577 45.60105788 -37.078125 40.8359375 C-43.22946382 34.3330936 -45.50260358 27.42329961 -45.265625 18.5234375 C-44.36615065 10.61896592 -40.3766253 4.77712324 -34.30859375 -0.15234375 C-24.34507348 -6.61053375 -9.90074846 -6.45255676 0 0 Z M-30.19140625 8.18359375 C-34.45471577 12.97600135 -35.57960683 16.8882588 -35.4765625 23.24609375 C-35.01977496 28.17770739 -32.91630925 30.8872129 -29.453125 34.2734375 C-23.77255953 38.28324842 -19.44202515 38.93773241 -12.6640625 38.0625 C-6.97424936 36.78368206 -3.49057362 33.18169662 -0.265625 28.5234375 C1.2645837 23.93281141 1.6757515 19.14803612 0.015625 14.51953125 C-2.51414948 9.7966055 -5.3800337 6.56245612 -10.45703125 4.734375 C-17.51858568 2.89991798 -24.46352579 3.24576577 -30.19140625 8.18359375 Z " fill="#0400BF" transform="translate(117.265625,191.4765625)"/>
<path d="M0 0 C0.6084375 0.37125 1.216875 0.7425 1.84375 1.125 C3.62990066 2.23356052 3.62990066 2.23356052 6.5 2 C8.17739862 1.01810813 9.84467377 0.01866229 11.5 -1 C12.16 -1 12.82 -1 13.5 -1 C13.43094471 4.30237781 13.34289179 9.60398045 13.23754883 14.90576172 C13.20438227 16.70775729 13.17632475 18.50985467 13.15356445 20.31201172 C13.11986568 22.90896823 13.06754351 25.50499866 13.01171875 28.1015625 C13.00213387 29.30191635 13.00213387 29.30191635 12.99235535 30.52651978 C12.84475427 36.19618859 11.75520638 40.44446348 7.88671875 44.828125 C0.56343232 50.9561164 -6.07678281 51.79216506 -15.5 51 C-20.32471614 49.99078137 -24.3878246 48.74145027 -28.5 46 C-27.84 43.69 -27.18 41.38 -26.5 39 C-23.5 39 -23.5 39 -19.9375 40.5 C-13.9195098 42.82739953 -8.17614673 42.87582984 -2.0625 40.875 C1.01974098 38.61970172 2.09539425 36.51151439 3.5 33 C3.005 32.505 3.005 32.505 2.5 32 C1.5925 32.66 0.685 33.32 -0.25 34 C-5.42349965 36.92780203 -10.72707188 36.87398912 -16.5 36 C-21.40934997 34.2017616 -25.52603508 31.07652693 -27.87109375 26.28125 C-29.72773678 19.54659453 -29.94525287 11.59981282 -26.5 5.375 C-20.16344894 -2.8731363 -9.14938067 -4.70924005 0 0 Z M-18.109375 9.8046875 C-20.53697183 13.63701733 -20.25745369 17.62742642 -19.5 22 C-17.81181551 25.12001504 -15.71905059 27.39047471 -12.5 29 C-7.20550628 29.34717992 -3.75336556 29.52421718 0.5 26 C3.45250655 22.43663003 3.97965422 19.41614738 3.78515625 14.92578125 C3.18524439 10.87432167 1.36497267 8.69678354 -1.75 6.1875 C-8.14685867 3.42522012 -13.52069124 4.65912464 -18.109375 9.8046875 Z " fill="#0400BF" transform="translate(160.5,199)"/>
<path d="M0 0 C2.96830162 2.55156962 4.39511284 4.86669628 4.89794922 8.81030273 C5.07131312 11.78809782 5.1583521 14.75593775 5.2109375 17.73828125 C5.44514916 27.09115843 5.44514916 27.09115843 6.5859375 36.36328125 C2.9559375 36.36328125 -0.6740625 36.36328125 -4.4140625 36.36328125 C-4.7440625 35.04328125 -5.0740625 33.72328125 -5.4140625 32.36328125 C-6.496875 33.29140625 -6.496875 33.29140625 -7.6015625 34.23828125 C-12.9891663 38.30891523 -17.7787665 39.13428395 -24.4140625 38.36328125 C-28.48068912 36.81056927 -29.98925852 36.00048723 -32.4140625 32.36328125 C-32.83137172 28.05108598 -32.96415813 25.51586257 -31.1015625 21.61328125 C-23.72556732 15.43802948 -13.66242404 14.48073034 -4.4140625 13.36328125 C-5.61567304 9.7919023 -5.61567304 9.7919023 -8.0390625 7.05078125 C-15.4904524 4.89379996 -20.80318927 6.9481206 -27.4140625 10.36328125 C-28.4040625 10.85828125 -28.4040625 10.85828125 -29.4140625 11.36328125 C-29.76872434 8.28954531 -29.93121796 5.42399726 -29.4140625 2.36328125 C-21.73301326 -4.61949078 -8.93618918 -4.74125321 0 0 Z M-13.3515625 18.17578125 C-14.09341797 18.43681641 -14.83527344 18.69785156 -15.59960938 18.96679688 C-20.2478277 20.64935091 -20.2478277 20.64935091 -23.4140625 24.36328125 C-23.83085547 26.90558972 -23.83085547 26.90558972 -23.4140625 29.36328125 C-19.70389621 31.83672544 -18.04766171 31.63456886 -13.77734375 31.01953125 C-9.68831193 29.88406456 -6.7500579 27.93338743 -4.4140625 24.36328125 C-3.85984253 21.26972614 -3.97968201 18.46599903 -4.4140625 15.36328125 C-7.32269723 15.36328125 -10.60074975 17.17008221 -13.3515625 18.17578125 Z " fill="#0400BF" transform="translate(210.4140625,199.63671875)"/>
<path d="M0 0 C4.13162771 3.09872079 7.07204574 5.4247009 7.98046875 10.62597656 C8.18104218 13.90371474 8.24621899 17.15369623 8.25 20.4375 C8.28327222 22.66801855 8.3196172 24.89849387 8.359375 27.12890625 C8.36420898 28.11189697 8.36904297 29.0948877 8.37402344 30.10766602 C8.44810003 33.2712233 8.44810003 33.2712233 9.5 37.875 C5.87 37.875 2.24 37.875 -1.5 37.875 C-1.83 36.555 -2.16 35.235 -2.5 33.875 C-3.5828125 34.803125 -3.5828125 34.803125 -4.6875 35.75 C-10.0751038 39.82063398 -14.864704 40.6460027 -21.5 39.875 C-25.56662662 38.32228802 -27.07519602 37.51220598 -29.5 33.875 C-29.91730922 29.56280473 -30.05009563 27.02758132 -28.1875 23.125 C-20.81150482 16.94974823 -10.74836154 15.99244909 -1.5 14.875 C-2.40051348 10.76886016 -2.40051348 10.76886016 -5.125 8 C-5.90875 7.95875 -6.6925 7.9175 -7.5 7.875 C-8.716875 7.771875 -9.93375 7.66875 -11.1875 7.5625 C-16.17979742 7.59996565 -20.13671177 9.62093616 -24.5 11.875 C-25.49 12.37 -25.49 12.37 -26.5 12.875 C-26.5 9.575 -26.5 6.275 -26.5 2.875 C-17.78341965 -1.28814285 -9.42893464 -3.03072899 0 0 Z M-11 19.6875 C-12.03447266 20.07905273 -12.03447266 20.07905273 -13.08984375 20.47851562 C-16.6853514 21.89779496 -18.30412891 22.58119337 -20.5 25.875 C-20.91679297 28.41730847 -20.91679297 28.41730847 -20.5 30.875 C-16.78983371 33.34844419 -15.13359921 33.14628761 -10.86328125 32.53125 C-6.77424943 31.39578331 -3.8359954 29.44510618 -1.5 25.875 C-0.94578003 22.78144489 -1.06561951 19.97771778 -1.5 16.875 C-4.87909757 16.875 -7.8939735 18.45960354 -11 19.6875 Z " fill="#0400BF" transform="translate(250.5,198.125)"/>
<path d="M0 0 C0.02505615 1.30670654 0.0501123 2.61341309 0.07592773 3.9597168 C0.17020534 8.8146317 0.27037625 13.66941032 0.37231445 18.52416992 C0.41558635 20.62407235 0.45726683 22.72400821 0.49731445 24.82397461 C0.55520477 27.84499173 0.6188451 30.86584179 0.68359375 33.88671875 C0.70030624 34.82335861 0.71701874 35.75999847 0.73423767 36.72502136 C0.75418289 37.60555679 0.77412811 38.48609222 0.79467773 39.39331055 C0.81022202 40.16386276 0.8257663 40.93441498 0.84178162 41.72831726 C0.98461431 44.47562209 0.98461431 44.47562209 2 49 C-2.29 49 -6.58 49 -11 49 C-10.67 47.35 -10.34 45.7 -10 44 C-9.90638087 41.20078812 -9.85977912 38.42759586 -9.8671875 35.62890625 C-9.86623077 34.82895737 -9.86527405 34.02900848 -9.86428833 33.20481873 C-9.8636098 31.51797405 -9.8654412 29.83112672 -9.86962891 28.14428711 C-9.87497473 25.57464677 -9.86967644 23.00518176 -9.86328125 20.43554688 C-9.86394223 18.79166628 -9.86522379 17.1477858 -9.8671875 15.50390625 C-9.86516327 14.7412294 -9.86313904 13.97855255 -9.86105347 13.19276428 C-9.87921838 9.01956513 -10.18098726 5.11173675 -11 1 C-7.25818125 0.11957206 -3.83583759 -0.04250236 0 0 Z " fill="#0400BF" transform="translate(275,187)"/>
</svg>
